<mxfile host="app.diagrams.net" modified="2023-04-14T07:40:56.606Z" agent="Mozilla/5.0 (Windows NT 10.0; Win64; x64) AppleWebKit/537.36 (KHTML, like Gecko) Chrome/113.0.0.0 Safari/537.36 Edg/113.0.0.0" etag="seeIuyGH7m0L4G3FkAz5" version="21.1.7" type="github">
  <diagram name="第 1 页" id="4XB7JFKkOnBG5gGi_P8B">
    <mxGraphModel dx="1416" dy="735" grid="1" gridSize="10" guides="1" tooltips="1" connect="1" arrows="1" fold="1" page="1" pageScale="1" pageWidth="827" pageHeight="1169" math="0" shadow="0">
      <root>
        <mxCell id="0" />
        <mxCell id="1" parent="0" />
        <mxCell id="mW4Ink5AOVUGKcEt3jjE-3" value="" style="edgeStyle=orthogonalEdgeStyle;rounded=0;orthogonalLoop=1;jettySize=auto;html=1;" edge="1" parent="1" source="mW4Ink5AOVUGKcEt3jjE-1" target="mW4Ink5AOVUGKcEt3jjE-2">
          <mxGeometry relative="1" as="geometry" />
        </mxCell>
        <mxCell id="mW4Ink5AOVUGKcEt3jjE-1" value="Actor" style="shape=umlActor;verticalLabelPosition=bottom;verticalAlign=top;html=1;outlineConnect=0;" vertex="1" parent="1">
          <mxGeometry x="370" y="30" width="30" height="60" as="geometry" />
        </mxCell>
        <mxCell id="mW4Ink5AOVUGKcEt3jjE-2" value="打开微信小程序我的页面" style="rounded=1;whiteSpace=wrap;html=1;verticalAlign=top;" vertex="1" parent="1">
          <mxGeometry x="332.5" y="150" width="105" height="40" as="geometry" />
        </mxCell>
      </root>
    </mxGraphModel>
  </diagram>
</mxfile>
